# xmcd
#
# Track frame offsets: 
#        150
#        16825
#        38230
#        56367
#        76801
#        97107
#        114028
#        136882
#        155554
#        179427
#        198996
#        222622
#
# Disc length: 3181 seconds
#
# Revision: 1
# Processed by: cddbd v1.5.2PL0 Copyright (c) Steve Scherf et al.
# Submitted via: ExactAudioCopy v0.95b4
#
DISCID=9a0c6b0c
DTITLE=Garth Brooks - The Ultimate Collection - Disc 9 (Turn It Up)
DYEAR=2016
DGENRE=Country
TTITLE0=The Thunder Rolls
TTITLE1=That Summer
TTITLE2=You Wreck Me
TTITLE3=Why Ain't I Running
TTITLE4=Wrapped Up In You
TTITLE5=I'd Rather Have Nothing
TTITLE6=Allison Miranda
TTITLE7=Black Water
TTITLE8=Midnight Train
TTITLE9=Dixie Chicken
TTITLE10=Man Against Machine
TTITLE11=Two Pina Coladas
EXTD=
EXTT0=
EXTT1=
EXTT2=
EXTT3=
EXTT4=
EXTT5=
EXTT6=
EXTT7=
EXTT8=
EXTT9=
EXTT10=
EXTT11=
PLAYORDER=
